<svg width="300" height="300" viewBox="0 0 300 300" fill="none" xmlns="http://www.w3.org/2000/svg">
<rect width="300" height="300" rx="150" fill="#4E5DE3"/>
<path d="M87 197H58.2727V103.909H88.2727C97.303 103.909 105.03 105.773 111.455 109.5C117.879 113.197 122.803 118.515 126.227 125.455C129.652 132.364 131.364 140.636 131.364 150.273C131.364 159.97 129.636 168.318 126.182 175.318C122.727 182.288 117.697 187.652 111.091 191.409C104.485 195.136 96.4545 197 87 197ZM69.5455 187H86.2727C93.9697 187 100.348 185.515 105.409 182.545C110.47 179.576 114.242 175.348 116.727 169.864C119.212 164.379 120.455 157.848 120.455 150.273C120.455 142.758 119.227 136.288 116.773 130.864C114.318 125.409 110.652 121.227 105.773 118.318C100.894 115.379 94.8182 113.909 87.5455 113.909H69.5455V187ZM150.273 103.909H163.727L195.364 181.182H196.455L228.091 103.909H241.545V197H231V126.273H230.091L201 197H190.818L161.727 126.273H160.818V197H150.273V103.909Z" fill="white"/>
</svg>
